<svg width="165" height="66" viewBox="0 0 165 66" fill="none" xmlns="http://www.w3.org/2000/svg">
<path d="M1.76172 45V14.9219H5.5V41.3047H17.918V45H1.76172ZM20.3242 38.6406V28.0273C20.3242 26.681 20.9258 25.3633 22.1289 24.0742C23.6185 22.5273 25.4805 21.7539 27.7148 21.7539V25.2344C26.0247 25.2344 24.8503 25.9362 24.1914 27.3398C23.9909 27.7695 23.8906 28.1992 23.8906 28.6289V38.082C23.8906 39.1419 24.3776 40.0443 25.3516 40.7891C26.0391 41.3047 26.8268 41.5625 27.7148 41.5625V45.043C24.9935 45.043 22.888 43.9401 21.3984 41.7344C20.6823 40.6458 20.3242 39.6146 20.3242 38.6406ZM29.5625 45.043V41.5625C31.0807 41.5625 32.1693 40.875 32.8281 39.5C33.0573 39.0417 33.1719 38.5977 33.1719 38.168V28.6289C33.1719 27.4544 32.6706 26.5234 31.668 25.8359C31.0378 25.4349 30.3216 25.2344 29.5195 25.2344V21.7539C32.1549 21.7539 34.1888 22.8281 35.6211 24.9766C36.3372 26.0365 36.6953 27.0534 36.6953 28.0273V38.6406C36.6953 40.0443 36.0938 41.4049 34.8906 42.7227C33.487 44.2409 31.7109 45.0143 29.5625 45.043ZM39.3164 27.168V23.6445H42.1523V21.1523C42.1523 19.5482 42.6823 18.0872 43.7422 16.7695C44.9167 15.3945 46.4349 14.6927 48.2969 14.6641H49.8867L49.0703 18.1445H48.2539C46.6211 18.2305 45.7904 19.2331 45.7617 21.1523V23.6875L48.6836 23.6445V27.168H45.7617V45H42.1523V27.168H39.3164ZM51.0898 25.4922V22.0117H53.9258V14.5781H57.5781V22.0117H60.3281V25.5352H57.5781V37.8672C57.5781 39.901 58.4089 41.0326 60.0703 41.2617C60.3854 41.319 60.7005 41.3477 61.0156 41.3477H61.6172L62.4336 45H60.8867C57.3633 44.9714 55.2005 43.6536 54.3984 41.0469C54.112 40.0729 53.9688 38.8698 53.9688 37.4375L53.9258 25.4922H51.0898ZM64.3672 45V14.9219H68.1055V28.0273H71.9727V31.6797H68.1055V45H64.3672ZM74.1211 31.6797V28.0273H77.9453V14.9219H81.7266V45H77.9453V31.6797H74.1211ZM85.0781 38.6406V28.0273C85.0781 26.681 85.6797 25.3633 86.8828 24.0742C88.3724 22.5273 90.2344 21.7539 92.4688 21.7539V25.2344C90.7786 25.2344 89.6042 25.9362 88.9453 27.3398C88.7448 27.7695 88.6445 28.1992 88.6445 28.6289V38.082C88.6445 39.1419 89.1315 40.0443 90.1055 40.7891C90.793 41.3047 91.5807 41.5625 92.4688 41.5625V45.043C89.7474 45.043 87.6419 43.9401 86.1523 41.7344C85.4362 40.6458 85.0781 39.6146 85.0781 38.6406ZM94.3164 45.043V41.5625C95.8346 41.5625 96.9232 40.875 97.582 39.5C97.8112 39.0417 97.9258 38.5977 97.9258 38.168V28.6289C97.9258 27.4544 97.4245 26.5234 96.4219 25.8359C95.7917 25.4349 95.0755 25.2344 94.2734 25.2344V21.7539C96.9089 21.7539 98.9427 22.8281 100.375 24.9766C101.091 26.0365 101.449 27.0534 101.449 28.0273V38.6406C101.449 40.0443 100.848 41.4049 99.6445 42.7227C98.2409 44.2409 96.4648 45.0143 94.3164 45.043ZM104.715 38.8125V21.7969H108.367V38.3828C108.367 39.4141 108.883 40.2734 109.914 40.9609C110.602 41.3906 111.361 41.6055 112.191 41.6055V45.2148C109.441 45.2148 107.322 44.1406 105.832 41.9922C105.087 40.9036 104.715 39.8438 104.715 38.8125ZM114.082 45.2148V41.6055C115.629 41.6055 116.76 40.9896 117.477 39.7578C117.734 39.2995 117.863 38.8411 117.863 38.3828V21.7969H121.516V38.8125C121.516 40.1589 120.9 41.4909 119.668 42.8086C118.178 44.3841 116.316 45.1862 114.082 45.2148ZM124.008 38.8984L127.402 38.2539C127.402 39.543 128.076 40.5599 129.422 41.3047C130.081 41.6198 130.711 41.7917 131.312 41.8203V45.2148C128.534 45.2148 126.457 44.2122 125.082 42.207C124.366 41.1471 124.008 40.0443 124.008 38.8984ZM124.223 28.3281C124.223 25.7214 125.411 23.7878 127.789 22.5273C128.935 21.9258 130.081 21.625 131.227 21.625V24.9766C129.909 24.9766 128.892 25.5208 128.176 26.6094C127.803 27.1536 127.617 27.7266 127.617 28.3281C127.617 29.2448 128.333 29.9896 129.766 30.5625C130.854 31.0208 132.96 31.6224 136.082 32.3672C138.03 32.7682 139.419 33.7279 140.25 35.2461C140.68 36.0482 140.895 36.9505 140.895 37.9531C140.895 40.7031 139.792 42.737 137.586 44.0547C136.297 44.8281 134.822 45.2148 133.16 45.2148V41.8203C134.478 41.8203 135.581 41.362 136.469 40.4453C137.099 39.7865 137.414 39.013 137.414 38.125C137.414 36.9792 136.283 36.0625 134.02 35.375C133.447 35.2031 132.53 34.9596 131.27 34.6445C129.923 34.3294 128.949 34.0716 128.348 33.8711C126.171 33.0117 124.853 31.7083 124.395 29.9609C124.28 29.4453 124.223 28.901 124.223 28.3281ZM133.117 25.0195V21.625C135.581 21.625 137.572 22.5417 139.09 24.375C140.035 25.5495 140.508 26.7812 140.508 28.0703L137.113 28.6289C137.113 27.0534 136.254 25.9505 134.535 25.3203C134.02 25.1198 133.547 25.0195 133.117 25.0195ZM143.43 38.6406V27.9844C143.458 26.6667 144.089 25.3633 145.32 24.0742C146.81 22.556 148.615 21.7826 150.734 21.7539V25.1484C149.359 25.1484 148.285 25.75 147.512 26.9531C147.197 27.4688 147.039 27.9414 147.039 28.3711V31.293H156.664V28.3711C156.664 27.082 156.005 26.1367 154.688 25.5352C154.086 25.2487 153.47 25.1055 152.84 25.1055V21.7539C154.816 21.7539 156.578 22.4557 158.125 23.8594C159.414 25.0911 160.073 26.4518 160.102 27.9414V34.7734H147.039V38.6406C147.039 39.4427 147.497 40.1875 148.414 40.875C149.159 41.3906 149.947 41.6484 150.777 41.6484V45C148.171 45 146.122 43.9401 144.633 41.8203C143.831 40.7031 143.43 39.6432 143.43 38.6406ZM152.84 45V41.6055C154.559 41.6055 155.848 40.8607 156.707 39.3711C156.879 39.056 157.008 38.7552 157.094 38.4688L160.145 39.5859C159.629 41.5625 158.454 43.0521 156.621 44.0547C155.447 44.6849 154.186 45 152.84 45Z" fill="white"/>
<path d="M0.312 63L3.624 58.608L0.516 54.48H1.5L4.332 58.272H5.496V54.48H6.324V58.272H7.476L10.32 54.48H11.304L8.184 58.608L11.496 63H10.524L7.5 59.04H6.324V63H5.496V59.04H4.308L1.284 63H0.312ZM14.3802 63V54.48H15.2082V61.848L20.4882 54.48H21.2682V63H20.4402V55.764L15.2202 63H14.3802ZM30.9374 55.224H27.9014V63H27.0614V55.224H24.0254V54.48H30.9374V55.224ZM39.4136 63V55.224H35.9336L35.8856 57.024C35.8456 58.2 35.7616 59.176 35.6336 59.952C35.5056 60.728 35.3256 61.34 35.0936 61.788C34.8616 62.228 34.5776 62.544 34.2416 62.736C33.9056 62.92 33.5056 63.012 33.0416 63.012V62.268C33.3536 62.268 33.6296 62.188 33.8696 62.028C34.1096 61.868 34.3136 61.588 34.4816 61.188C34.6496 60.788 34.7816 60.236 34.8776 59.532C34.9816 58.82 35.0496 57.92 35.0816 56.832L35.1536 54.48H40.2416V63H39.4136ZM47.2444 63.06C46.6444 63.06 46.1004 62.94 45.6124 62.7C45.1244 62.46 44.7044 62.136 44.3524 61.728C44.0004 61.312 43.7284 60.848 43.5364 60.336C43.3444 59.816 43.2484 59.284 43.2484 58.74C43.2484 58.172 43.3484 57.632 43.5484 57.12C43.7484 56.6 44.0284 56.14 44.3884 55.74C44.7564 55.332 45.1844 55.012 45.6724 54.78C46.1604 54.54 46.6884 54.42 47.2564 54.42C47.8564 54.42 48.4004 54.544 48.8884 54.792C49.3764 55.04 49.7924 55.372 50.1364 55.788C50.4884 56.204 50.7604 56.668 50.9524 57.18C51.1444 57.692 51.2404 58.216 51.2404 58.752C51.2404 59.32 51.1404 59.864 50.9404 60.384C50.7404 60.896 50.4604 61.356 50.1004 61.764C49.7404 62.164 49.3164 62.48 48.8284 62.712C48.3404 62.944 47.8124 63.06 47.2444 63.06ZM44.0884 58.74C44.0884 59.204 44.1644 59.652 44.3164 60.084C44.4684 60.508 44.6844 60.888 44.9644 61.224C45.2444 61.552 45.5764 61.816 45.9604 62.016C46.3524 62.208 46.7804 62.304 47.2444 62.304C47.7324 62.304 48.1684 62.204 48.5524 62.004C48.9444 61.796 49.2764 61.524 49.5484 61.188C49.8284 60.844 50.0404 60.46 50.1844 60.036C50.3284 59.612 50.4004 59.18 50.4004 58.74C50.4004 58.276 50.3244 57.832 50.1724 57.408C50.0204 56.984 49.8004 56.604 49.5124 56.268C49.2324 55.932 48.9004 55.668 48.5164 55.476C48.1324 55.284 47.7084 55.188 47.2444 55.188C46.7644 55.188 46.3284 55.288 45.9364 55.488C45.5524 55.688 45.2204 55.96 44.9404 56.304C44.6684 56.64 44.4564 57.02 44.3044 57.444C44.1604 57.868 44.0884 58.3 44.0884 58.74ZM60.6721 60.804C60.6721 61.228 60.5641 61.608 60.3481 61.944C60.1321 62.272 59.8401 62.532 59.4721 62.724C59.1121 62.908 58.7161 63 58.2841 63H54.2641V54.48H58.3681C58.7681 54.48 59.1121 54.588 59.4001 54.804C59.6961 55.012 59.9201 55.284 60.0721 55.62C60.2321 55.948 60.3121 56.292 60.3121 56.652C60.3121 57.076 60.2041 57.468 59.9881 57.828C59.7721 58.188 59.4721 58.456 59.0881 58.632C59.5761 58.776 59.9601 59.044 60.2401 59.436C60.5281 59.828 60.6721 60.284 60.6721 60.804ZM59.8321 60.66C59.8321 60.372 59.7681 60.108 59.6401 59.868C59.5121 59.62 59.3361 59.42 59.1121 59.268C58.8961 59.116 58.6481 59.04 58.3681 59.04H55.1041V62.268H58.2841C58.5721 62.268 58.8321 62.192 59.0641 62.04C59.2961 61.888 59.4801 61.692 59.6161 61.452C59.7601 61.204 59.8321 60.94 59.8321 60.66ZM55.1041 55.212V58.356H58.0321C58.3121 58.356 58.5601 58.284 58.7761 58.14C58.9921 57.988 59.1641 57.792 59.2921 57.552C59.4201 57.312 59.4841 57.056 59.4841 56.784C59.4841 56.496 59.4241 56.236 59.3041 56.004C59.1841 55.764 59.0201 55.572 58.8121 55.428C58.6041 55.284 58.3681 55.212 58.1041 55.212H55.1041ZM63.7443 63V54.48H64.5723V61.848L69.8523 54.48H70.6323V63H69.8043V55.764L64.5843 63H63.7443ZM74.3015 63V54.48H75.1295V61.848L80.4095 54.48H81.1895V63H80.3615V55.764L75.1415 63H74.3015ZM77.7575 53.76C77.3655 53.76 77.0335 53.704 76.7615 53.592C76.4975 53.472 76.2975 53.312 76.1615 53.112C76.0255 52.904 75.9535 52.68 75.9455 52.44H76.6055C76.6135 52.648 76.6975 52.836 76.8575 53.004C77.0255 53.172 77.3255 53.256 77.7575 53.256C78.1735 53.256 78.4655 53.18 78.6335 53.028C78.8015 52.868 78.8895 52.672 78.8975 52.44H79.5575C79.5495 52.68 79.4775 52.904 79.3415 53.112C79.2055 53.312 79.0055 53.472 78.7415 53.592C78.4855 53.704 78.1575 53.76 77.7575 53.76ZM89.3092 63V54.48H90.1492V58.272H91.4332L94.3612 54.48H95.3332L92.1292 58.608L95.5372 63H94.5052L91.4572 59.04H90.1492V63H89.3092ZM101.318 63.06C100.718 63.06 100.174 62.94 99.686 62.7C99.198 62.46 98.778 62.136 98.426 61.728C98.074 61.312 97.802 60.848 97.61 60.336C97.418 59.816 97.322 59.284 97.322 58.74C97.322 58.172 97.422 57.632 97.622 57.12C97.822 56.6 98.102 56.14 98.462 55.74C98.83 55.332 99.258 55.012 99.746 54.78C100.234 54.54 100.762 54.42 101.33 54.42C101.93 54.42 102.474 54.544 102.962 54.792C103.45 55.04 103.866 55.372 104.21 55.788C104.562 56.204 104.834 56.668 105.026 57.18C105.218 57.692 105.314 58.216 105.314 58.752C105.314 59.32 105.214 59.864 105.014 60.384C104.814 60.896 104.534 61.356 104.174 61.764C103.814 62.164 103.39 62.48 102.902 62.712C102.414 62.944 101.886 63.06 101.318 63.06ZM98.162 58.74C98.162 59.204 98.238 59.652 98.39 60.084C98.542 60.508 98.758 60.888 99.038 61.224C99.318 61.552 99.65 61.816 100.034 62.016C100.426 62.208 100.854 62.304 101.318 62.304C101.806 62.304 102.242 62.204 102.626 62.004C103.018 61.796 103.35 61.524 103.622 61.188C103.902 60.844 104.114 60.46 104.258 60.036C104.402 59.612 104.474 59.18 104.474 58.74C104.474 58.276 104.398 57.832 104.246 57.408C104.094 56.984 103.874 56.604 103.586 56.268C103.306 55.932 102.974 55.668 102.59 55.476C102.206 55.284 101.782 55.188 101.318 55.188C100.838 55.188 100.402 55.288 100.01 55.488C99.626 55.688 99.294 55.96 99.014 56.304C98.742 56.64 98.53 57.02 98.378 57.444C98.234 57.868 98.162 58.3 98.162 58.74ZM115.886 63V56.064L112.802 61.452H112.274L109.178 56.064V63H108.338V54.48H109.202L112.526 60.312L115.874 54.48H116.726V63H115.886ZM120.301 63V54.48H126.733V63H125.893V55.224H121.141V63H120.301ZM136.068 63V55.224H132.588L132.54 57.024C132.5 58.2 132.416 59.176 132.288 59.952C132.16 60.728 131.98 61.34 131.748 61.788C131.516 62.228 131.232 62.544 130.896 62.736C130.56 62.92 130.16 63.012 129.696 63.012V62.268C130.008 62.268 130.284 62.188 130.524 62.028C130.764 61.868 130.968 61.588 131.136 61.188C131.304 60.788 131.436 60.236 131.532 59.532C131.636 58.82 131.704 57.92 131.736 56.832L131.808 54.48H136.896V63H136.068ZM146.19 62.256V63H140.466V54.48H146.082V55.224H141.306V58.296H145.47V59.004H141.306V62.256H146.19ZM149.219 63V54.48H150.059V58.272H151.343L154.271 54.48H155.243L152.039 58.608L155.447 63H154.415L151.367 59.04H150.059V63H149.219ZM157.232 58.68C157.232 58.16 157.32 57.652 157.496 57.156C157.68 56.652 157.944 56.196 158.288 55.788C158.632 55.372 159.056 55.044 159.56 54.804C160.064 54.556 160.636 54.432 161.276 54.432C162.036 54.432 162.684 54.608 163.22 54.96C163.764 55.304 164.164 55.748 164.42 56.292L163.76 56.7C163.576 56.324 163.344 56.028 163.064 55.812C162.784 55.588 162.484 55.428 162.164 55.332C161.852 55.236 161.54 55.188 161.228 55.188C160.716 55.188 160.264 55.292 159.872 55.5C159.48 55.7 159.148 55.972 158.876 56.316C158.612 56.652 158.412 57.032 158.276 57.456C158.14 57.872 158.072 58.296 158.072 58.728C158.072 59.2 158.152 59.652 158.312 60.084C158.472 60.516 158.696 60.9 158.984 61.236C159.272 61.564 159.608 61.828 159.992 62.028C160.384 62.22 160.808 62.316 161.264 62.316C161.584 62.316 161.912 62.26 162.248 62.148C162.584 62.036 162.896 61.864 163.184 61.632C163.48 61.4 163.716 61.1 163.892 60.732L164.588 61.092C164.412 61.516 164.14 61.876 163.772 62.172C163.404 62.468 162.992 62.692 162.536 62.844C162.088 62.996 161.648 63.072 161.216 63.072C160.632 63.072 160.096 62.948 159.608 62.7C159.12 62.444 158.696 62.108 158.336 61.692C157.984 61.268 157.712 60.796 157.52 60.276C157.328 59.748 157.232 59.216 157.232 58.68Z" fill="white"/>
</svg>
